<?xml version="1.0" encoding="UTF-8"?>
<svg xmlns="http://www.w3.org/2000/svg" xmlns:xlink="http://www.w3.org/1999/xlink" width="40pt" height="40pt" viewBox="0 0 40 40" version="1.1">
<g id="surface1">
<path style=" stroke:none;fill-rule:nonzero;fill:rgb(74.117647%,74.117647%,74.117647%);fill-opacity:1;" d="M 33.59375 39.414062 L 11.09375 39.414062 C 10.445312 39.414062 9.921875 38.890625 9.921875 38.242188 L 9.921875 8.398438 C 9.921875 7.75 10.445312 7.226562 11.09375 7.226562 L 33.59375 7.226562 C 34.242188 7.226562 34.765625 7.75 34.765625 8.398438 L 34.765625 38.242188 C 34.765625 38.890625 34.242188 39.414062 33.59375 39.414062 Z M 33.59375 39.414062 "/>
<path style=" stroke:none;fill-rule:nonzero;fill:rgb(83.137255%,83.137255%,83.137255%);fill-opacity:1;" d="M 31.25 36.09375 L 8.75 36.09375 C 8.101562 36.09375 7.578125 35.570312 7.578125 34.921875 L 7.578125 5.078125 C 7.578125 4.429688 8.101562 3.90625 8.75 3.90625 L 31.25 3.90625 C 31.898438 3.90625 32.421875 4.429688 32.421875 5.078125 L 32.421875 34.921875 C 32.421875 35.570312 31.898438 36.09375 31.25 36.09375 Z M 31.25 36.09375 "/>
<path style=" stroke:none;fill-rule:nonzero;fill:rgb(96.078431%,96.078431%,96.078431%);fill-opacity:1;" d="M 28.90625 32.773438 L 6.40625 32.773438 C 5.757812 32.773438 5.234375 32.25 5.234375 31.601562 L 5.234375 1.757812 C 5.234375 1.109375 5.757812 0.585938 6.40625 0.585938 L 28.90625 0.585938 C 29.554688 0.585938 30.078125 1.109375 30.078125 1.757812 L 30.078125 31.601562 C 30.078125 32.25 29.554688 32.773438 28.90625 32.773438 Z M 28.90625 32.773438 "/>
<path style=" stroke:none;fill-rule:nonzero;fill:rgb(90.196078%,90.196078%,90.196078%);fill-opacity:1;" d="M 27.734375 0.585938 L 27.734375 32.773438 L 28.90625 32.773438 C 29.554688 32.773438 30.078125 32.25 30.078125 31.601562 L 30.078125 1.757812 C 30.078125 1.109375 29.554688 0.585938 28.90625 0.585938 Z M 27.734375 0.585938 "/>
<path style=" stroke:none;fill-rule:nonzero;fill:rgb(100%,23.921569%,47.843137%);fill-opacity:1;" d="M 13.554688 14.0625 L 9.492188 14.0625 C 9.320312 14.0625 9.179688 13.921875 9.179688 13.75 L 9.179688 9.6875 C 9.179688 9.515625 9.320312 9.375 9.492188 9.375 L 13.554688 9.375 C 13.726562 9.375 13.867188 9.515625 13.867188 9.6875 L 13.867188 13.75 C 13.867188 13.921875 13.726562 14.0625 13.554688 14.0625 Z M 13.554688 14.0625 "/>
<path style=" stroke:none;fill-rule:nonzero;fill:rgb(54.901961%,94.901961%,100%);fill-opacity:1;" d="M 13.554688 21.640625 L 9.492188 21.640625 C 9.320312 21.640625 9.179688 21.5 9.179688 21.328125 L 9.179688 17.265625 C 9.179688 17.09375 9.320312 16.953125 9.492188 16.953125 L 13.554688 16.953125 C 13.726562 16.953125 13.867188 17.09375 13.867188 17.265625 L 13.867188 21.328125 C 13.867188 21.5 13.726562 21.640625 13.554688 21.640625 Z M 13.554688 21.640625 "/>
<path style=" stroke:none;fill-rule:nonzero;fill:rgb(100%,79.215686%,15.686275%);fill-opacity:1;" d="M 13.554688 29.21875 L 9.492188 29.21875 C 9.320312 29.21875 9.179688 29.078125 9.179688 28.90625 L 9.179688 24.84375 C 9.179688 24.671875 9.320312 24.53125 9.492188 24.53125 L 13.554688 24.53125 C 13.726562 24.53125 13.867188 24.671875 13.867188 24.84375 L 13.867188 28.90625 C 13.867188 29.078125 13.726562 29.21875 13.554688 29.21875 Z M 13.554688 29.21875 "/>
<path style=" stroke:none;fill-rule:nonzero;fill:rgb(54.901961%,61.960784%,100%);fill-opacity:1;" d="M 23.164062 6.09375 L 12.382812 6.09375 C 11.628906 6.09375 11.015625 5.480469 11.015625 4.726562 C 11.015625 3.972656 11.628906 3.359375 12.382812 3.359375 L 23.164062 3.359375 C 23.917969 3.359375 24.53125 3.972656 24.53125 4.726562 C 24.53125 5.480469 23.917969 6.09375 23.164062 6.09375 Z M 23.164062 6.09375 "/>
<path style=" stroke:none;fill-rule:nonzero;fill:rgb(0%,0%,0%);fill-opacity:1;" d="M 34.765625 13.074219 C 35.089844 13.074219 35.351562 12.8125 35.351562 12.488281 L 35.351562 8.398438 C 35.351562 7.429688 34.5625 6.640625 33.59375 6.640625 L 33.007812 6.640625 L 33.007812 5.078125 C 33.007812 4.109375 32.21875 3.320312 31.25 3.320312 L 30.664062 3.320312 L 30.664062 1.757812 C 30.664062 0.789062 29.875 0 28.90625 0 L 6.40625 0 C 5.4375 0 4.648438 0.789062 4.648438 1.757812 L 4.648438 4.988281 C 4.648438 5.3125 4.910156 5.574219 5.234375 5.574219 C 5.558594 5.574219 5.820312 5.3125 5.820312 4.988281 L 5.820312 1.757812 C 5.820312 1.433594 6.082031 1.171875 6.40625 1.171875 L 28.90625 1.171875 C 29.230469 1.171875 29.492188 1.433594 29.492188 1.757812 L 29.492188 31.601562 C 29.492188 31.925781 29.230469 32.1875 28.90625 32.1875 L 6.40625 32.1875 C 6.082031 32.1875 5.820312 31.925781 5.820312 31.601562 L 5.820312 7.488281 C 5.820312 7.164062 5.558594 6.902344 5.234375 6.902344 C 4.910156 6.902344 4.648438 7.164062 4.648438 7.488281 L 4.648438 31.601562 C 4.648438 32.570312 5.4375 33.359375 6.40625 33.359375 L 6.992188 33.359375 L 6.992188 34.921875 C 6.992188 35.890625 7.78125 36.679688 8.75 36.679688 L 9.335938 36.679688 L 9.335938 38.242188 C 9.335938 39.210938 10.125 40 11.09375 40 L 33.59375 40 C 34.5625 40 35.351562 39.210938 35.351562 38.242188 L 35.351562 14.976562 C 35.351562 14.652344 35.089844 14.390625 34.765625 14.390625 C 34.441406 14.390625 34.179688 14.652344 34.179688 14.976562 L 34.179688 38.242188 C 34.179688 38.566406 33.917969 38.828125 33.59375 38.828125 L 11.09375 38.828125 C 10.769531 38.828125 10.507812 38.566406 10.507812 38.242188 L 10.507812 36.679688 L 24.988281 36.679688 C 25.3125 36.679688 25.574219 36.417969 25.574219 36.09375 C 25.574219 35.769531 25.3125 35.507812 24.988281 35.507812 L 8.75 35.507812 C 8.425781 35.507812 8.164062 35.246094 8.164062 34.921875 L 8.164062 33.359375 L 28.90625 33.359375 C 29.875 33.359375 30.664062 32.570312 30.664062 31.601562 L 30.664062 4.492188 L 31.25 4.492188 C 31.574219 4.492188 31.835938 4.753906 31.835938 5.078125 L 31.835938 34.921875 C 31.835938 35.246094 31.574219 35.507812 31.25 35.507812 L 27.476562 35.507812 C 27.152344 35.507812 26.890625 35.769531 26.890625 36.09375 C 26.890625 36.417969 27.152344 36.679688 27.476562 36.679688 L 31.25 36.679688 C 32.21875 36.679688 33.007812 35.890625 33.007812 34.921875 L 33.007812 7.8125 L 33.59375 7.8125 C 33.917969 7.8125 34.179688 8.074219 34.179688 8.398438 L 34.179688 12.488281 C 34.179688 12.8125 34.441406 13.074219 34.765625 13.074219 Z M 34.765625 13.074219 "/>
<path style=" stroke:none;fill-rule:nonzero;fill:rgb(0%,0%,0%);fill-opacity:1;" d="M 8.59375 9.6875 L 8.59375 13.75 C 8.59375 14.246094 8.996094 14.648438 9.492188 14.648438 L 13.554688 14.648438 C 14.050781 14.648438 14.453125 14.246094 14.453125 13.75 L 14.453125 10.726562 L 15.652344 9.703125 C 15.898438 9.492188 15.929688 9.125 15.71875 8.878906 C 15.507812 8.632812 15.140625 8.601562 14.894531 8.8125 L 14.351562 9.273438 C 14.203125 8.984375 13.902344 8.789062 13.554688 8.789062 L 9.492188 8.789062 C 8.996094 8.789062 8.59375 9.191406 8.59375 9.6875 Z M 9.765625 9.960938 L 13.28125 9.960938 L 13.28125 10.1875 L 12.117188 11.179688 L 11.5625 10.578125 C 11.34375 10.339844 10.972656 10.328125 10.734375 10.546875 C 10.496094 10.765625 10.484375 11.136719 10.703125 11.375 L 11.640625 12.390625 C 11.851562 12.621094 12.210938 12.640625 12.449219 12.4375 L 13.28125 11.730469 L 13.28125 13.476562 L 9.765625 13.476562 Z M 9.765625 9.960938 "/>
<path style=" stroke:none;fill-rule:nonzero;fill:rgb(0%,0%,0%);fill-opacity:1;" d="M 26.132812 9.726562 L 16.757812 9.726562 C 16.433594 9.726562 16.171875 9.988281 16.171875 10.3125 C 16.171875 10.636719 16.433594 10.898438 16.757812 10.898438 L 26.132812 10.898438 C 26.457031 10.898438 26.71875 10.636719 26.71875 10.3125 C 26.71875 9.988281 26.457031 9.726562 26.132812 9.726562 Z M 26.132812 9.726562 "/>
<path style=" stroke:none;fill-rule:nonzero;fill:rgb(0%,0%,0%);fill-opacity:1;" d="M 26.132812 12.226562 L 16.757812 12.226562 C 16.433594 12.226562 16.171875 12.488281 16.171875 12.8125 C 16.171875 13.136719 16.433594 13.398438 16.757812 13.398438 L 26.132812 13.398438 C 26.457031 13.398438 26.71875 13.136719 26.71875 12.8125 C 26.71875 12.488281 26.457031 12.226562 26.132812 12.226562 Z M 26.132812 12.226562 "/>
<path style=" stroke:none;fill-rule:nonzero;fill:rgb(0%,0%,0%);fill-opacity:1;" d="M 8.59375 21.328125 C 8.59375 21.824219 8.996094 22.226562 9.492188 22.226562 L 13.554688 22.226562 C 14.050781 22.226562 14.453125 21.824219 14.453125 21.328125 L 14.453125 17.265625 C 14.453125 16.769531 14.050781 16.367188 13.554688 16.367188 L 9.492188 16.367188 C 8.996094 16.367188 8.59375 16.769531 8.59375 17.265625 Z M 9.765625 17.539062 L 13.28125 17.539062 L 13.28125 21.054688 L 9.765625 21.054688 Z M 9.765625 17.539062 "/>
<path style=" stroke:none;fill-rule:nonzero;fill:rgb(0%,0%,0%);fill-opacity:1;" d="M 26.132812 17.304688 L 16.757812 17.304688 C 16.433594 17.304688 16.171875 17.566406 16.171875 17.890625 C 16.171875 18.214844 16.433594 18.476562 16.757812 18.476562 L 26.132812 18.476562 C 26.457031 18.476562 26.71875 18.214844 26.71875 17.890625 C 26.71875 17.566406 26.457031 17.304688 26.132812 17.304688 Z M 26.132812 17.304688 "/>
<path style=" stroke:none;fill-rule:nonzero;fill:rgb(0%,0%,0%);fill-opacity:1;" d="M 26.132812 19.804688 L 16.757812 19.804688 C 16.433594 19.804688 16.171875 20.066406 16.171875 20.390625 C 16.171875 20.714844 16.433594 20.976562 16.757812 20.976562 L 26.132812 20.976562 C 26.457031 20.976562 26.71875 20.714844 26.71875 20.390625 C 26.71875 20.066406 26.457031 19.804688 26.132812 19.804688 Z M 26.132812 19.804688 "/>
<path style=" stroke:none;fill-rule:nonzero;fill:rgb(0%,0%,0%);fill-opacity:1;" d="M 8.59375 28.90625 C 8.59375 29.402344 8.996094 29.804688 9.492188 29.804688 L 13.554688 29.804688 C 14.050781 29.804688 14.453125 29.402344 14.453125 28.90625 L 14.453125 24.84375 C 14.453125 24.347656 14.050781 23.945312 13.554688 23.945312 L 9.492188 23.945312 C 8.996094 23.945312 8.59375 24.347656 8.59375 24.84375 Z M 9.765625 25.117188 L 13.28125 25.117188 L 13.28125 28.632812 L 9.765625 28.632812 Z M 9.765625 25.117188 "/>
<path style=" stroke:none;fill-rule:nonzero;fill:rgb(0%,0%,0%);fill-opacity:1;" d="M 26.132812 24.882812 L 16.757812 24.882812 C 16.433594 24.882812 16.171875 25.144531 16.171875 25.46875 C 16.171875 25.792969 16.433594 26.054688 16.757812 26.054688 L 26.132812 26.054688 C 26.457031 26.054688 26.71875 25.792969 26.71875 25.46875 C 26.71875 25.144531 26.457031 24.882812 26.132812 24.882812 Z M 26.132812 24.882812 "/>
<path style=" stroke:none;fill-rule:nonzero;fill:rgb(0%,0%,0%);fill-opacity:1;" d="M 26.132812 27.382812 L 16.757812 27.382812 C 16.433594 27.382812 16.171875 27.644531 16.171875 27.96875 C 16.171875 28.292969 16.433594 28.554688 16.757812 28.554688 L 26.132812 28.554688 C 26.457031 28.554688 26.71875 28.292969 26.71875 27.96875 C 26.71875 27.644531 26.457031 27.382812 26.132812 27.382812 Z M 26.132812 27.382812 "/>
<path style=" stroke:none;fill-rule:nonzero;fill:rgb(0%,0%,0%);fill-opacity:1;" d="M 23.164062 2.773438 L 12.382812 2.773438 C 11.304688 2.773438 10.429688 3.648438 10.429688 4.726562 C 10.429688 5.804688 11.304688 6.679688 12.382812 6.679688 L 23.164062 6.679688 C 24.242188 6.679688 25.117188 5.804688 25.117188 4.726562 C 25.117188 3.648438 24.242188 2.773438 23.164062 2.773438 Z M 23.164062 5.507812 L 12.382812 5.507812 C 11.953125 5.507812 11.601562 5.15625 11.601562 4.726562 C 11.601562 4.296875 11.953125 3.945312 12.382812 3.945312 L 23.164062 3.945312 C 23.59375 3.945312 23.945312 4.296875 23.945312 4.726562 C 23.945312 5.15625 23.59375 5.507812 23.164062 5.507812 Z M 23.164062 5.507812 "/>
</g>
</svg>
